<svg width="62" height="70" viewBox="0 0 62 70" fill="none" xmlns="http://www.w3.org/2000/svg">
<path d="M60.1999 43.2999C61.1999 42.1999 61.8 40.7999 61.8 39.1999C61.8 35.7999 59 32.9999 55.5999 32.9999H43.7C44.9 29.3999 45.4 24.5999 45.4 22.5999V20.5999C45.4 16.0999 41.7 12.3999 37.2 12.3999H35.0999C34.1999 12.3999 33.2999 12.9999 33.0999 13.9999L32 18.4999C30.4 24.7999 25.5 31.6999 20.2999 32.8999C19.4 30.5999 17.2 28.9999 14.6 28.9999H2.29995C1.19995 28.9999 0.199951 29.8999 0.199951 31.0999V67.9999C0.199951 69.0999 1.09995 70.0999 2.29995 70.0999H14.6C17 70.0999 19.2 68.6999 20.2 66.5999L27.2 68.8999C29.5 69.6999 31.9 70.0999 34.2999 70.0999H51.5C54.9 70.0999 57.7 67.2999 57.7 63.8999C57.7 63.0999 57.5 62.2999 57.2999 61.5999C59.8999 60.8999 61.8 58.4999 61.8 55.6999C61.8 54.0999 61.1999 52.6999 60.1999 51.5999C61.1999 50.4999 61.8 49.0999 61.8 47.4999C61.8 45.8999 61.1999 44.3999 60.1999 43.2999ZM16.6 63.7999C16.6 64.8999 15.7 65.8999 14.5 65.8999H4.29995V33.0999H14.6C15.7 33.0999 16.7 33.9999 16.7 35.1999V63.7999H16.6ZM51.5 45.3999H55.5999C56.6999 45.3999 57.7 46.2999 57.7 47.4999C57.7 48.5999 56.7999 49.5999 55.5999 49.5999H51.5C50.4 49.5999 49.4 50.4999 49.4 51.6999C49.4 52.7999 50.2999 53.7999 51.5 53.7999H55.5999C56.6999 53.7999 57.7 54.6999 57.7 55.8999C57.7 56.9999 56.7999 57.9999 55.5999 57.9999H51.5C50.4 57.9999 49.4 58.8999 49.4 60.0999C49.4 61.2999 50.2999 62.1999 51.5 62.1999C52.5999 62.1999 53.5999 63.0999 53.5999 64.2999C53.5999 65.3999 52.7 66.3999 51.5 66.3999H34.2999C32.2999 66.3999 30.2999 66.0999 28.5 65.4999L20.7999 62.8999V36.9999C24 36.3999 27.2 34.3999 30 30.9999C32.7999 27.6999 35 23.3999 36 19.3999L36.7 16.4999H37.0999C39.3999 16.4999 41.2 18.2999 41.2 20.5999V22.5999C41.2 25.3999 40.2999 30.5999 39.2 32.9999H35C33.9 32.9999 32.9 33.8999 32.9 35.0999C32.9 36.2999 33.7999 37.1999 35 37.1999H55.5C56.5999 37.1999 57.5999 38.0999 57.5999 39.2999C57.5999 40.3999 56.7 41.3999 55.5 41.3999H51.4C50.3 41.3999 49.2999 42.2999 49.2999 43.4999C49.5 44.4999 50.4 45.3999 51.5 45.3999Z" fill="#4B6896"/>
<path d="M10.4999 61.8001C11.5999 61.8001 12.5999 60.9001 12.5999 59.7001C12.5999 58.6001 11.6999 57.6001 10.4999 57.6001C9.2999 57.6001 8.3999 58.5001 8.3999 59.7001C8.3999 60.9001 9.3999 61.8001 10.4999 61.8001Z" fill="#4B6896"/>
<path d="M39.2003 0C38.1003 0 37.1003 0.9 37.1003 2.1V6.3C37.1003 7.4 38.0003 8.4 39.2003 8.4C40.3003 8.4 41.3003 7.5 41.3003 6.3V2.1C41.3003 0.9 40.3003 0 39.2003 0Z" fill="#FF190A"/>
<path d="M30.5003 9L27.6003 6.1C26.8003 5.3 25.5003 5.3 24.7003 6.1C23.9003 6.9 23.9003 8.2 24.7003 9L27.6003 11.9C28.4003 12.7 29.7003 12.7 30.5003 11.9C31.3003 11.1 31.3003 9.8 30.5003 9Z" fill="#FF190A"/>
<path d="M53.6996 6.1C52.8996 5.3 51.5996 5.3 50.7996 6.1L47.8996 9C47.0996 9.8 47.0996 11.1 47.8996 11.9C48.6996 12.7 49.9996 12.7 50.7996 11.9L53.6996 9C54.4996 8.2 54.4996 6.9 53.6996 6.1Z" fill="#FF190A"/>
</svg>
